%TF.GenerationSoftware,Altium Limited,Altium Designer,25.8.1 (18)*%
G04 Layer_Color=32896*
%FSLAX45Y45*%
%MOMM*%
%TF.SameCoordinates,56FEC790-4A4F-4F9A-8951-50DBF4044865*%
%TF.FilePolarity,Positive*%
%TF.FileFunction,Legend,Bot*%
%TF.Part,Single*%
G01*
G75*
%TA.AperFunction,NonConductor*%
%ADD40C,0.25400*%
%ADD58C,0.25000*%
%ADD60C,0.10000*%
%ADD61C,0.20000*%
%ADD63C,0.15000*%
%ADD64C,0.50000*%
D40*
X4023338Y4213811D02*
Y4086852D01*
X3997946Y4061460D01*
X3947162D01*
X3921770Y4086852D01*
Y4213811D01*
X3870987Y4086852D02*
X3845595Y4061460D01*
X3794812D01*
X3769420Y4086852D01*
Y4188419D01*
X3794812Y4213811D01*
X3845595D01*
X3870987Y4188419D01*
Y4163027D01*
X3845595Y4137635D01*
X3769420D01*
X6896959Y4228675D02*
Y4101716D01*
X6871567Y4076325D01*
X6820783D01*
X6795392Y4101716D01*
Y4228675D01*
X6744608Y4203283D02*
X6719216Y4228675D01*
X6668433D01*
X6643041Y4203283D01*
Y4177892D01*
X6668433Y4152500D01*
X6643041Y4127108D01*
Y4101716D01*
X6668433Y4076325D01*
X6719216D01*
X6744608Y4101716D01*
Y4127108D01*
X6719216Y4152500D01*
X6744608Y4177892D01*
Y4203283D01*
X6719216Y4152500D02*
X6668433D01*
X21216620Y13766751D02*
Y13639792D01*
X21191228Y13614400D01*
X21140445D01*
X21115053Y13639792D01*
Y13766751D01*
X20962701D02*
X21064268D01*
Y13690575D01*
X21013486Y13715967D01*
X20988094D01*
X20962701Y13690575D01*
Y13639792D01*
X20988094Y13614400D01*
X21038876D01*
X21064268Y13639792D01*
D58*
X4437037Y3001300D02*
G03*
X4437037Y3001300I-12500J0D01*
G01*
X7104037Y3033000D02*
G03*
X7104037Y3033000I-12500J0D01*
G01*
D60*
X3774037Y3171300D02*
Y3301300D01*
Y3171300D02*
X4414037D01*
Y3301300D01*
X7081037Y3203000D02*
Y3333000D01*
X6441037Y3203000D02*
X7081037D01*
X6441037D02*
Y3333000D01*
D61*
X5815337Y3420600D02*
Y3640600D01*
X6030337Y3420600D02*
Y3640600D01*
X7555137Y3334800D02*
Y3624800D01*
X8075137Y3334800D02*
Y3624800D01*
X3605147Y3464010D02*
Y3673390D01*
X3414527Y3464010D02*
Y3673390D01*
X15682500Y6027500D02*
X15752499D01*
X15682500Y5857500D02*
X15752499D01*
X4887847Y3446010D02*
Y3655390D01*
X4697227Y3446010D02*
Y3655390D01*
X7852484Y3985823D02*
X7869145Y4002484D01*
X7902468D01*
X7919129Y3985823D01*
Y3919178D01*
X7902468Y3902516D01*
X7869145D01*
X7852484Y3919178D01*
X7752516Y3902516D02*
X7819161D01*
X7752516Y3969161D01*
Y3985823D01*
X7769177Y4002484D01*
X7802500D01*
X7819161Y3985823D01*
X7719193Y3902516D02*
X7685871D01*
X7702532D01*
Y4002484D01*
X7719193Y3985823D01*
D63*
X5968316Y3836658D02*
X5981645Y3849987D01*
X6008303D01*
X6021632Y3836658D01*
Y3783342D01*
X6008303Y3770013D01*
X5981645D01*
X5968316Y3783342D01*
X5888342Y3770013D02*
X5941658D01*
X5888342Y3823329D01*
Y3836658D01*
X5901671Y3849987D01*
X5928329D01*
X5941658Y3836658D01*
X5861684D02*
X5848355Y3849987D01*
X5821697D01*
X5808368Y3836658D01*
Y3783342D01*
X5821697Y3770013D01*
X5848355D01*
X5861684Y3783342D01*
Y3836658D01*
X4853964Y3927445D02*
X4867293Y3940774D01*
X4893951D01*
X4907280Y3927445D01*
Y3874129D01*
X4893951Y3860800D01*
X4867293D01*
X4853964Y3874129D01*
X4827306Y3860800D02*
X4800648D01*
X4813977D01*
Y3940774D01*
X4827306Y3927445D01*
X4760661Y3874129D02*
X4747331Y3860800D01*
X4720673D01*
X4707344Y3874129D01*
Y3927445D01*
X4720673Y3940774D01*
X4747331D01*
X4760661Y3927445D01*
Y3914116D01*
X4747331Y3900787D01*
X4707344D01*
X3561652Y3929158D02*
X3574981Y3942487D01*
X3601639D01*
X3614968Y3929158D01*
Y3875842D01*
X3601639Y3862513D01*
X3574981D01*
X3561652Y3875842D01*
X3534994Y3862513D02*
X3508336D01*
X3521665D01*
Y3942487D01*
X3534994Y3929158D01*
X3468348D02*
X3455019Y3942487D01*
X3428361D01*
X3415032Y3929158D01*
Y3915829D01*
X3428361Y3902500D01*
X3415032Y3889171D01*
Y3875842D01*
X3428361Y3862513D01*
X3455019D01*
X3468348Y3875842D01*
Y3889171D01*
X3455019Y3902500D01*
X3468348Y3915829D01*
Y3929158D01*
X3455019Y3902500D02*
X3428361D01*
X15759152Y5654158D02*
X15772481Y5667487D01*
X15799139D01*
X15812468Y5654158D01*
Y5600842D01*
X15799139Y5587513D01*
X15772481D01*
X15759152Y5600842D01*
X15732494Y5587513D02*
X15705835D01*
X15719164D01*
Y5667487D01*
X15732494Y5654158D01*
X15612532Y5667487D02*
X15665848D01*
Y5627500D01*
X15639191Y5640829D01*
X15625861D01*
X15612532Y5627500D01*
Y5600842D01*
X15625861Y5587513D01*
X15652519D01*
X15665848Y5600842D01*
D64*
X16921899Y6335800D02*
G03*
X16921899Y6335800I-25000J0D01*
G01*
%TF.MD5,c29907feb11cf0d3a917deb59f0d25c4*%
M02*
