%TF.GenerationSoftware,Altium Limited,Altium Designer,25.8.1 (18)*%
G04 Layer_Color=65535*
%FSLAX45Y45*%
%MOMM*%
%TF.SameCoordinates,56FEC790-4A4F-4F9A-8951-50DBF4044865*%
%TF.FilePolarity,Positive*%
%TF.FileFunction,Legend,Top*%
%TF.Part,Single*%
G01*
G75*
%TA.AperFunction,NonConductor*%
%ADD40C,0.25400*%
%ADD58C,0.25000*%
%ADD59C,0.60000*%
%ADD60C,0.10000*%
%ADD61C,0.20000*%
%ADD62C,0.18000*%
%ADD63C,0.15000*%
D40*
X10899608Y4658675D02*
X10848825D01*
X10874217D01*
Y4531717D01*
X10848825Y4506325D01*
X10823433D01*
X10798041Y4531717D01*
X11051959Y4506325D02*
X10950392D01*
X11051959Y4607892D01*
Y4633284D01*
X11026567Y4658675D01*
X10975784D01*
X10950392Y4633284D01*
X6333041Y8508675D02*
Y8381717D01*
X6358433Y8356325D01*
X6409217D01*
X6434608Y8381717D01*
Y8508675D01*
X6586959D02*
X6536175Y8483284D01*
X6485392Y8432500D01*
Y8381717D01*
X6510784Y8356325D01*
X6561567D01*
X6586959Y8381717D01*
Y8407108D01*
X6561567Y8432500D01*
X6485392D01*
X5483041Y10646176D02*
Y10519217D01*
X5508433Y10493825D01*
X5559217D01*
X5584609Y10519217D01*
Y10646176D01*
X5736959Y10493825D02*
X5635392D01*
X5736959Y10595392D01*
Y10620784D01*
X5711567Y10646176D01*
X5660784D01*
X5635392Y10620784D01*
X12416325Y9029608D02*
Y8978825D01*
Y9004216D01*
X12543284D01*
X12568675Y8978825D01*
Y8953433D01*
X12543284Y8928041D01*
X12416325Y9080392D02*
Y9181959D01*
X12441717D01*
X12543284Y9080392D01*
X12568675D01*
X12386324Y5634608D02*
Y5583824D01*
Y5609216D01*
X12513283D01*
X12538675Y5583824D01*
Y5558433D01*
X12513283Y5533041D01*
X12386324Y5786959D02*
X12411716Y5736175D01*
X12462500Y5685392D01*
X12513283D01*
X12538675Y5710784D01*
Y5761567D01*
X12513283Y5786959D01*
X12487892D01*
X12462500Y5761567D01*
Y5685392D01*
X4173675Y9425392D02*
Y9476175D01*
Y9450783D01*
X4046717D01*
X4021325Y9476175D01*
Y9501567D01*
X4046717Y9526959D01*
X4173675Y9273041D02*
Y9374608D01*
X4097500D01*
X4122892Y9323825D01*
Y9298433D01*
X4097500Y9273041D01*
X4046717D01*
X4021325Y9298433D01*
Y9349216D01*
X4046717Y9374608D01*
X4198675Y7847891D02*
Y7898675D01*
Y7873283D01*
X4071717D01*
X4046325Y7898675D01*
Y7924067D01*
X4071717Y7949459D01*
X4046325Y7720932D02*
X4198675D01*
X4122500Y7797108D01*
Y7695541D01*
X4151175Y6125392D02*
Y6176175D01*
Y6150783D01*
X4024216D01*
X3998825Y6176175D01*
Y6201567D01*
X4024216Y6226959D01*
X4125783Y6074608D02*
X4151175Y6049216D01*
Y5998433D01*
X4125783Y5973041D01*
X4100392D01*
X4075000Y5998433D01*
Y6023825D01*
Y5998433D01*
X4049608Y5973041D01*
X4024216D01*
X3998825Y5998433D01*
Y6049216D01*
X4024216Y6074608D01*
X12391324Y8112500D02*
Y8061716D01*
Y8087108D01*
X12518283D01*
X12543675Y8061716D01*
Y8036325D01*
X12518283Y8010933D01*
X12543675Y8163283D02*
Y8214067D01*
Y8188675D01*
X12391324D01*
X12416716Y8163283D01*
X12163041Y4693675D02*
Y4541325D01*
X12239217D01*
X12264608Y4566717D01*
Y4592108D01*
X12239217Y4617500D01*
X12163041D01*
X12239217D01*
X12264608Y4642892D01*
Y4668284D01*
X12239217Y4693675D01*
X12163041D01*
X12416959Y4541325D02*
X12315392D01*
X12416959Y4642892D01*
Y4668284D01*
X12391567Y4693675D01*
X12340784D01*
X12315392Y4668284D01*
X6765933Y6983675D02*
Y6831325D01*
X6842108D01*
X6867500Y6856717D01*
Y6882108D01*
X6842108Y6907500D01*
X6765933D01*
X6842108D01*
X6867500Y6932892D01*
Y6958284D01*
X6842108Y6983675D01*
X6765933D01*
X6918284Y6831325D02*
X6969067D01*
X6943676D01*
Y6983675D01*
X6918284Y6958284D01*
D58*
X10767500Y8600000D02*
G03*
X10767500Y8600000I-12500J0D01*
G01*
X9617500Y7980000D02*
G03*
X9617500Y7980000I-12500J0D01*
G01*
X10517100Y4388325D02*
G03*
X10517100Y4388325I-12500J0D01*
G01*
X8211894Y7940500D02*
G03*
X8211894Y7940500I-12500J0D01*
G01*
X6335000Y8277000D02*
G03*
X6335000Y8277000I-12500J0D01*
G01*
X7205000Y10292500D02*
G03*
X7205000Y10292500I-12500J0D01*
G01*
X5293200Y10321201D02*
G03*
X5293200Y10321201I-12500J0D01*
G01*
D59*
X6592500Y8172500D02*
G03*
X6592500Y8172500I-30000J0D01*
G01*
D60*
X10642500Y9025000D02*
X10690000D01*
Y8977500D02*
Y9025000D01*
X10250000D02*
X10297500D01*
X10250000Y8977500D02*
Y9025000D01*
Y8585000D02*
Y8632500D01*
Y8585000D02*
X10297500D01*
X10642500D02*
X10690000D01*
Y8632500D01*
X11043700Y2788550D02*
Y3050825D01*
X9520450Y2788550D02*
Y3050825D01*
Y2788550D02*
X11043700D01*
X9523700Y3373300D02*
Y4073300D01*
X9513700Y4303300D02*
Y4413300D01*
X11033700D01*
Y3413300D02*
Y4073300D01*
Y4293300D02*
Y4413300D01*
X12880385Y8357546D02*
Y9132546D01*
X12622885D02*
X12880385D01*
X12622885Y8355046D02*
Y9132546D01*
Y8355046D02*
X12877885D01*
X12880385Y8357546D01*
X7302500Y6265000D02*
Y6777500D01*
X6452500Y6265000D02*
X7302500D01*
X6452500D02*
Y6780000D01*
X7300000D01*
X11702500Y3275000D02*
X11707500Y3270000D01*
X11702500Y3275000D02*
Y4485000D01*
X12914999D01*
Y3270000D02*
Y4485000D01*
X11707500Y3270000D02*
X12914999D01*
X11827500Y4045000D02*
X11935000D01*
X11880000Y3995000D02*
Y4092500D01*
X12857500Y5006000D02*
Y5781000D01*
X12600000D02*
X12857500D01*
X12600000Y5003500D02*
Y5781000D01*
Y5003500D02*
X12855000D01*
X12857500Y5006000D01*
X12863792Y6937357D02*
Y8212357D01*
X12606293Y6937357D02*
X12863792D01*
X12606293D02*
Y8212357D01*
X12863792D01*
X12607500Y5845500D02*
X12867500D01*
Y6870500D01*
X12607500D02*
X12867500D01*
X12607500Y5845500D02*
Y6870500D01*
X9575008Y7693347D02*
X9616661D01*
X9624992Y7701678D01*
Y7718339D01*
X9616661Y7726670D01*
X9575008D01*
X9624992Y7768323D02*
X9575008D01*
X9600000Y7743331D01*
Y7776653D01*
X9054178Y9154992D02*
Y9113339D01*
X9062508Y9105008D01*
X9079170D01*
X9087500Y9113339D01*
Y9154992D01*
X9104161Y9105008D02*
X9120822D01*
X9112492D01*
Y9154992D01*
X9104161Y9146661D01*
X10060847Y8435008D02*
Y8484992D01*
X10085839D01*
X10094170Y8476661D01*
Y8460000D01*
X10085839Y8451669D01*
X10060847D01*
X10077508D02*
X10094170Y8435008D01*
X10110831Y8476661D02*
X10119161Y8484992D01*
X10135823D01*
X10144153Y8476661D01*
Y8468331D01*
X10135823Y8460000D01*
X10127492D01*
X10135823D01*
X10144153Y8451669D01*
Y8443339D01*
X10135823Y8435008D01*
X10119161D01*
X10110831Y8443339D01*
X9755838Y8630843D02*
X9747508Y8622512D01*
Y8605851D01*
X9755838Y8597521D01*
X9789161D01*
X9797491Y8605851D01*
Y8622512D01*
X9789161Y8630843D01*
X9797491Y8647504D02*
Y8664165D01*
Y8655835D01*
X9747508D01*
X9755838Y8647504D01*
X9797491Y8722480D02*
Y8689157D01*
X9764169Y8722480D01*
X9755838D01*
X9747508Y8714149D01*
Y8697488D01*
X9755838Y8689157D01*
D61*
X9670000Y7255000D02*
X9712501D01*
X9670000D02*
Y7297500D01*
X10367500Y7255000D02*
X10410001D01*
Y7297500D01*
Y7952500D02*
Y7995000D01*
X10367500D02*
X10410001D01*
X9670000D02*
X9712501D01*
X9670000Y7952500D02*
Y7995000D01*
X9937695Y8235000D02*
X10042306D01*
X9937695Y8405000D02*
X10042306D01*
X9871967Y8742800D02*
X10046967D01*
X9872500Y8572500D02*
X10047500D01*
X10531893Y5989393D02*
Y6270606D01*
X10713107Y5989393D02*
Y6270606D01*
X8537101Y7505000D02*
Y7995000D01*
Y7505000D02*
X8682900D01*
Y7995000D01*
X8537101D02*
X8682900D01*
X6462500Y7222500D02*
Y8272500D01*
X7082500Y7222500D02*
Y8272500D01*
X6462500D02*
X7082500D01*
X6462500Y7222500D02*
X7082500D01*
X10995000Y6142500D02*
X11105000D01*
X10995000Y6322500D02*
X11105000D01*
X5162911Y10212627D02*
Y10287374D01*
X4977089Y10212627D02*
Y10287374D01*
X7357500Y10337500D02*
X7362500D01*
X7357500Y10242500D02*
X7362500D01*
X10392500Y9600000D02*
X10502500D01*
X10392500Y9420000D02*
X10502500D01*
X8595310Y9595311D02*
Y9804690D01*
X8404690Y9595311D02*
Y9804690D01*
X6297500Y6460000D02*
Y6570000D01*
X6117500Y6460000D02*
Y6570000D01*
X11012500Y5702500D02*
Y5727500D01*
X11157500Y5702500D02*
Y5727500D01*
X9850000Y8925000D02*
Y9035000D01*
X10030000Y8925000D02*
Y9035000D01*
X13472911Y7542627D02*
Y7617374D01*
X13287090Y7542627D02*
Y7617374D01*
X13185001Y6282500D02*
Y6457500D01*
X13355299Y6283033D02*
Y6458034D01*
X8615310Y8785310D02*
Y8994690D01*
X8424690Y8785310D02*
Y8994690D01*
X5420000Y9430000D02*
Y9570000D01*
X6640000Y9430000D02*
Y9570000D01*
X6640000Y8810001D02*
Y8830001D01*
X5420000Y8810001D02*
Y8830001D01*
Y8810001D02*
X6640000D01*
Y10390000D02*
Y10410001D01*
X5420000D02*
X6640000D01*
X5420000Y10390000D02*
Y10410001D01*
X7085000Y10160001D02*
X7195000D01*
X7085000Y9980000D02*
X7195000D01*
X8631374Y4392694D02*
X8840754D01*
X8631374Y4583314D02*
X8840754D01*
X8663874Y6732694D02*
X8873254D01*
X8663874Y6923314D02*
X8873254D01*
X8661374Y6142694D02*
X8870754D01*
X8661374Y6333314D02*
X8870754D01*
X8661374Y5562694D02*
X8870754D01*
X8661374Y5753314D02*
X8870754D01*
X8651374Y4972694D02*
X8860754D01*
X8651374Y5163314D02*
X8860754D01*
X10957484Y8918306D02*
X10874177D01*
X10857516Y8901645D01*
Y8868322D01*
X10874177Y8851661D01*
X10957484D01*
X10940822Y8818338D02*
X10957484Y8801677D01*
Y8768355D01*
X10940822Y8751693D01*
X10924161D01*
X10907500Y8768355D01*
Y8785016D01*
Y8768355D01*
X10890838Y8751693D01*
X10874177D01*
X10857516Y8768355D01*
Y8801677D01*
X10874177Y8818338D01*
D62*
X8254194Y8184984D02*
Y8101677D01*
X8270855Y8085016D01*
X8304177D01*
X8320839Y8101677D01*
Y8184984D01*
X8354161D02*
X8420806D01*
Y8168322D01*
X8354161Y8101677D01*
Y8085016D01*
D63*
X4978355Y10595013D02*
Y10674987D01*
X5018342D01*
X5031671Y10661658D01*
Y10635000D01*
X5018342Y10621671D01*
X4978355D01*
X5005013D02*
X5031671Y10595013D01*
X5111645D02*
X5058329D01*
X5111645Y10648329D01*
Y10661658D01*
X5098316Y10674987D01*
X5071658D01*
X5058329Y10661658D01*
X13321684Y7912513D02*
Y7992487D01*
X13361671D01*
X13375000Y7979158D01*
Y7952500D01*
X13361671Y7939171D01*
X13321684D01*
X13348341D02*
X13375000Y7912513D01*
X13401659D02*
X13428316D01*
X13414987D01*
Y7992487D01*
X13401659Y7979158D01*
X12460013Y6549171D02*
Y6522513D01*
Y6535842D01*
X12526658D01*
X12539987Y6522513D01*
Y6509184D01*
X12526658Y6495855D01*
X12473342Y6575829D02*
X12460013Y6589158D01*
Y6615816D01*
X12473342Y6629145D01*
X12486671D01*
X12500000Y6615816D01*
X12513329Y6629145D01*
X12526658D01*
X12539987Y6615816D01*
Y6589158D01*
X12526658Y6575829D01*
X12513329D01*
X12500000Y6589158D01*
X12486671Y6575829D01*
X12473342D01*
X12500000Y6589158D02*
Y6615816D01*
X7609987Y10353316D02*
X7530013D01*
Y10313329D01*
X7543342Y10300000D01*
X7596658D01*
X7609987Y10313329D01*
Y10353316D01*
X7530013Y10273342D02*
Y10246684D01*
Y10260013D01*
X7609987D01*
X7596658Y10273342D01*
X5973341Y6458349D02*
X5960012Y6445020D01*
Y6418362D01*
X5973341Y6405032D01*
X6026657D01*
X6039987Y6418362D01*
Y6445020D01*
X6026657Y6458349D01*
X6039987Y6485007D02*
Y6511665D01*
Y6498336D01*
X5960012D01*
X5973341Y6485007D01*
X5960012Y6551652D02*
Y6604968D01*
X5973341D01*
X6026657Y6551652D01*
X6039987D01*
X13068349Y6609158D02*
X13055019Y6622487D01*
X13028362D01*
X13015031Y6609158D01*
Y6555842D01*
X13028362Y6542513D01*
X13055019D01*
X13068349Y6555842D01*
X13095006Y6542513D02*
X13121664D01*
X13108334D01*
Y6622487D01*
X13095006Y6609158D01*
X13214967Y6622487D02*
X13188310Y6609158D01*
X13161652Y6582500D01*
Y6555842D01*
X13174982Y6542513D01*
X13201639D01*
X13214967Y6555842D01*
Y6569171D01*
X13201639Y6582500D01*
X13161652D01*
X11038348Y6001658D02*
X11025019Y6014987D01*
X10998361D01*
X10985032Y6001658D01*
Y5948342D01*
X10998361Y5935013D01*
X11025019D01*
X11038348Y5948342D01*
X11065006Y5935013D02*
X11091664D01*
X11078335D01*
Y6014987D01*
X11065006Y6001658D01*
X11171639Y5935013D02*
Y6014987D01*
X11131652Y5975000D01*
X11184968D01*
X9730842Y9023348D02*
X9717513Y9010019D01*
Y8983361D01*
X9730842Y8970032D01*
X9784158D01*
X9797487Y8983361D01*
Y9010019D01*
X9784158Y9023348D01*
X9797487Y9050006D02*
Y9076664D01*
Y9063335D01*
X9717513D01*
X9730842Y9050006D01*
Y9116652D02*
X9717513Y9129981D01*
Y9156639D01*
X9730842Y9169968D01*
X9744171D01*
X9757500Y9156639D01*
Y9143310D01*
Y9156639D01*
X9770829Y9169968D01*
X9784158D01*
X9797487Y9156639D01*
Y9129981D01*
X9784158Y9116652D01*
X10404178Y6419158D02*
X10390849Y6432487D01*
X10364191D01*
X10350861Y6419158D01*
Y6365842D01*
X10364191Y6352513D01*
X10390849D01*
X10404178Y6365842D01*
X10430836Y6352513D02*
X10457494D01*
X10444165D01*
Y6432487D01*
X10430836Y6419158D01*
X10497481Y6352513D02*
X10524139D01*
X10510810D01*
Y6432487D01*
X10497481Y6419158D01*
X10756658Y9551651D02*
X10769987Y9564980D01*
Y9591638D01*
X10756658Y9604968D01*
X10703342D01*
X10690013Y9591638D01*
Y9564980D01*
X10703342Y9551651D01*
X10690013Y9524993D02*
Y9498335D01*
Y9511664D01*
X10769987D01*
X10756658Y9524993D01*
Y9458348D02*
X10769987Y9445019D01*
Y9418361D01*
X10756658Y9405032D01*
X10703342D01*
X10690013Y9418361D01*
Y9445019D01*
X10703342Y9458348D01*
X10756658D01*
X11361658Y6233329D02*
X11374987Y6246658D01*
Y6273316D01*
X11361658Y6286645D01*
X11308342D01*
X11295013Y6273316D01*
Y6246658D01*
X11308342Y6233329D01*
Y6206671D02*
X11295013Y6193342D01*
Y6166684D01*
X11308342Y6153355D01*
X11361658D01*
X11374987Y6166684D01*
Y6193342D01*
X11361658Y6206671D01*
X11348329D01*
X11335000Y6193342D01*
Y6153355D01*
X7456658Y10088329D02*
X7469987Y10101658D01*
Y10128316D01*
X7456658Y10141645D01*
X7403342D01*
X7390013Y10128316D01*
Y10101658D01*
X7403342Y10088329D01*
X7456658Y10061671D02*
X7469987Y10048342D01*
Y10021684D01*
X7456658Y10008355D01*
X7443329D01*
X7430000Y10021684D01*
X7416671Y10008355D01*
X7403342D01*
X7390013Y10021684D01*
Y10048342D01*
X7403342Y10061671D01*
X7416671D01*
X7430000Y10048342D01*
X7443329Y10061671D01*
X7456658D01*
X7430000Y10048342D02*
Y10021684D01*
X8278342Y8896671D02*
X8265013Y8883342D01*
Y8856684D01*
X8278342Y8843355D01*
X8331658D01*
X8344987Y8856684D01*
Y8883342D01*
X8331658Y8896671D01*
X8265013Y8923329D02*
Y8976645D01*
X8278342D01*
X8331658Y8923329D01*
X8344987D01*
X8486671Y10059158D02*
X8473342Y10072487D01*
X8446684D01*
X8433355Y10059158D01*
Y10005842D01*
X8446684Y9992513D01*
X8473342D01*
X8486671Y10005842D01*
X8566645Y10072487D02*
X8539987Y10059158D01*
X8513329Y10032500D01*
Y10005842D01*
X8526658Y9992513D01*
X8553316D01*
X8566645Y10005842D01*
Y10019171D01*
X8553316Y10032500D01*
X8513329D01*
X8729171Y4731658D02*
X8715842Y4744987D01*
X8689184D01*
X8675855Y4731658D01*
Y4678342D01*
X8689184Y4665013D01*
X8715842D01*
X8729171Y4678342D01*
X8809145Y4744987D02*
X8755829D01*
Y4705000D01*
X8782487Y4718329D01*
X8795816D01*
X8809145Y4705000D01*
Y4678342D01*
X8795816Y4665013D01*
X8769158D01*
X8755829Y4678342D01*
X8734171Y5316658D02*
X8720842Y5329987D01*
X8694184D01*
X8680855Y5316658D01*
Y5263342D01*
X8694184Y5250013D01*
X8720842D01*
X8734171Y5263342D01*
X8800816Y5250013D02*
Y5329987D01*
X8760829Y5290000D01*
X8814145D01*
X8749171Y5909158D02*
X8735842Y5922487D01*
X8709184D01*
X8695855Y5909158D01*
Y5855842D01*
X8709184Y5842513D01*
X8735842D01*
X8749171Y5855842D01*
X8775829Y5909158D02*
X8789158Y5922487D01*
X8815816D01*
X8829145Y5909158D01*
Y5895829D01*
X8815816Y5882500D01*
X8802487D01*
X8815816D01*
X8829145Y5869171D01*
Y5855842D01*
X8815816Y5842513D01*
X8789158D01*
X8775829Y5855842D01*
X8741671Y7089158D02*
X8728342Y7102487D01*
X8701684D01*
X8688355Y7089158D01*
Y7035842D01*
X8701684Y7022513D01*
X8728342D01*
X8741671Y7035842D01*
X8821645Y7022513D02*
X8768329D01*
X8821645Y7075829D01*
Y7089158D01*
X8808316Y7102487D01*
X8781658D01*
X8768329Y7089158D01*
X8760000Y6494158D02*
X8746671Y6507487D01*
X8720013D01*
X8706684Y6494158D01*
Y6440842D01*
X8720013Y6427513D01*
X8746671D01*
X8760000Y6440842D01*
X8786658Y6427513D02*
X8813316D01*
X8799987D01*
Y6507487D01*
X8786658Y6494158D01*
%TF.MD5,ad3d13fefb311a8a6f09e069a517aa09*%
M02*
