%TF.GenerationSoftware,Altium Limited,Altium Designer,25.8.1 (18)*%
G04 Layer_Color=128*
%FSLAX45Y45*%
%MOMM*%
%TF.SameCoordinates,56FEC790-4A4F-4F9A-8951-50DBF4044865*%
%TF.FilePolarity,Positive*%
%TF.FileFunction,Paste,Bot*%
%TF.Part,Single*%
G01*
G75*
%TA.AperFunction,SMDPad,CuDef*%
%ADD29R,1.90620X0.75620*%
%TA.AperFunction,ConnectorPad*%
%ADD51R,1.52400X2.84480*%
%TA.AperFunction,SMDPad,CuDef*%
%ADD52R,4.90000X6.20000*%
%ADD53R,1.50000X1.90000*%
%ADD54R,5.40000X1.55000*%
%ADD55R,1.35000X0.95000*%
%ADD56R,0.95000X2.60000*%
%TA.AperFunction,ConnectorPad*%
%ADD57R,2.84480X1.52400*%
D29*
X4792537Y3723200D02*
D03*
Y3378200D02*
D03*
X3509837Y3741200D02*
D03*
Y3396200D02*
D03*
D51*
X16495660Y6558080D02*
D03*
X16295001D02*
D03*
X17097641Y8706920D02*
D03*
X14489061D02*
D03*
X16896980Y6558080D02*
D03*
X14890381D02*
D03*
X14489061D02*
D03*
X16696321D02*
D03*
X17498961Y8706920D02*
D03*
X17298302D02*
D03*
X16896980D02*
D03*
X16696321D02*
D03*
X16495660D02*
D03*
X16295001D02*
D03*
X16094341D02*
D03*
X15893681D02*
D03*
X15693021D02*
D03*
X15492361D02*
D03*
X15291701D02*
D03*
X15091042D02*
D03*
X14890381D02*
D03*
X14689722D02*
D03*
Y6558080D02*
D03*
X15091042D02*
D03*
X15291701D02*
D03*
X15492361D02*
D03*
X15693021D02*
D03*
X15893681D02*
D03*
X16094341D02*
D03*
D52*
X4094037Y3651300D02*
D03*
X6761037Y3683000D02*
D03*
D53*
X15567500Y5942500D02*
D03*
X15867500D02*
D03*
D54*
X7815137Y3742300D02*
D03*
Y3217300D02*
D03*
D55*
X5922837Y3605600D02*
D03*
Y3455600D02*
D03*
D56*
X4322037Y3001300D02*
D03*
X3866037D02*
D03*
X6989037Y3033000D02*
D03*
X6533037D02*
D03*
D57*
X14313800Y8338619D02*
D03*
Y8137959D02*
D03*
Y7937299D02*
D03*
Y7736639D02*
D03*
Y7535979D02*
D03*
Y7335319D02*
D03*
Y7134659D02*
D03*
Y6933999D02*
D03*
%TF.MD5,758a5d6a2e03c3226243d1f6965b0032*%
M02*
