%TF.GenerationSoftware,Altium Limited,Altium Designer,25.8.1 (18)*%
G04 Layer_Color=8421504*
%FSLAX45Y45*%
%MOMM*%
%TF.SameCoordinates,56FEC790-4A4F-4F9A-8951-50DBF4044865*%
%TF.FilePolarity,Positive*%
%TF.FileFunction,Paste,Top*%
%TF.Part,Single*%
G01*
G75*
%TA.AperFunction,SMDPad,CuDef*%
%ADD11O,0.25000X0.80000*%
%ADD12R,0.95606X1.60981*%
%ADD13R,0.27500X0.25000*%
%ADD14R,0.25000X0.27500*%
%ADD15R,0.25000X0.80000*%
%ADD16R,2.70000X2.60000*%
%ADD17R,0.80000X0.25000*%
%ADD18R,5.60000X5.60000*%
%ADD19O,0.80000X0.25000*%
%ADD20R,0.70000X1.60000*%
%ADD21R,1.80000X0.80000*%
%ADD22O,2.00000X0.60000*%
G04:AMPARAMS|DCode=23|XSize=2.37707mm|YSize=0.62213mm|CornerRadius=0.31107mm|HoleSize=0mm|Usage=FLASHONLY|Rotation=0.000|XOffset=0mm|YOffset=0mm|HoleType=Round|Shape=RoundedRectangle|*
%AMROUNDEDRECTD23*
21,1,2.37707,0.00000,0,0,0.0*
21,1,1.75494,0.62213,0,0,0.0*
1,1,0.62213,0.87747,0.00000*
1,1,0.62213,-0.87747,0.00000*
1,1,0.62213,-0.87747,0.00000*
1,1,0.62213,0.87747,0.00000*
%
%ADD23ROUNDEDRECTD23*%
%ADD24R,1.01213X1.15814*%
%ADD25R,0.95000X1.70000*%
%ADD26R,1.85822X1.60376*%
%ADD27R,0.90000X0.75000*%
%ADD28R,1.25000X1.00000*%
%ADD29R,1.90620X0.75620*%
%ADD30R,0.75620X1.90620*%
%ADD31R,1.70000X0.95000*%
%ADD32R,0.75000X0.90000*%
%ADD33R,2.37707X0.62213*%
%ADD34R,0.70000X0.80000*%
%ADD35R,1.80000X1.10000*%
%ADD36R,1.20000X1.40000*%
%ADD37R,1.20000X2.20000*%
%ADD38R,1.60000X1.40000*%
D11*
X9965000Y7965000D02*
D03*
X10115000D02*
D03*
Y7285000D02*
D03*
X10065000D02*
D03*
X10015000D02*
D03*
X9765001D02*
D03*
X9865000D02*
D03*
X9815000Y7965000D02*
D03*
X10265000Y7285000D02*
D03*
X10165000D02*
D03*
X10315000D02*
D03*
X9765001Y7965000D02*
D03*
X9915000Y7285000D02*
D03*
X9815000D02*
D03*
X10165000Y7965000D02*
D03*
X9915000D02*
D03*
X10215000Y7285000D02*
D03*
X10065000Y7965000D02*
D03*
X10015000D02*
D03*
X9865000D02*
D03*
X9965000Y7285000D02*
D03*
X10315000Y7965000D02*
D03*
X10265000D02*
D03*
X10215000D02*
D03*
D12*
X9859892Y8320000D02*
D03*
X10120108D02*
D03*
D13*
X8885000Y9010000D02*
D03*
Y8960000D02*
D03*
X9035000Y9010000D02*
D03*
Y8960000D02*
D03*
D14*
X9010000Y9060000D02*
D03*
Y8910000D02*
D03*
X8910000D02*
D03*
Y9060000D02*
D03*
X8960000D02*
D03*
Y8910000D02*
D03*
D15*
X10445000Y9000000D02*
D03*
X10495000Y8610000D02*
D03*
X10445000D02*
D03*
X10345000D02*
D03*
X10395000Y9000000D02*
D03*
X10595000D02*
D03*
X10395000Y8610000D02*
D03*
X10345000Y9000000D02*
D03*
X10495000D02*
D03*
X10545000D02*
D03*
Y8610000D02*
D03*
X10595000D02*
D03*
D16*
X10470000Y8805000D02*
D03*
D17*
X10275000Y8730000D02*
D03*
Y8780000D02*
D03*
Y8830000D02*
D03*
Y8880000D02*
D03*
X10665000Y8930000D02*
D03*
Y8880000D02*
D03*
Y8830000D02*
D03*
Y8780000D02*
D03*
Y8730000D02*
D03*
X10275000Y8680000D02*
D03*
X10665000D02*
D03*
X10275000Y8930000D02*
D03*
D18*
X10040000Y7625000D02*
D03*
D19*
X10380000Y7450000D02*
D03*
Y7400000D02*
D03*
X9700000D02*
D03*
Y7450000D02*
D03*
Y7600000D02*
D03*
Y7650000D02*
D03*
Y7700000D02*
D03*
Y7750000D02*
D03*
Y7800000D02*
D03*
Y7850000D02*
D03*
X10380000Y7750000D02*
D03*
X9700000Y7550000D02*
D03*
X10380000Y7850000D02*
D03*
Y7800000D02*
D03*
X9700000Y7900000D02*
D03*
Y7500000D02*
D03*
X10380000Y7900000D02*
D03*
X9700000Y7350000D02*
D03*
X10380000Y7600000D02*
D03*
Y7550000D02*
D03*
Y7650000D02*
D03*
Y7500000D02*
D03*
Y7350000D02*
D03*
Y7700000D02*
D03*
D20*
X10064600Y4250825D02*
D03*
X9844600D02*
D03*
X10394600D02*
D03*
X10284600D02*
D03*
X10174600D02*
D03*
X9954600D02*
D03*
X10504600D02*
D03*
X9734600D02*
D03*
X9624600D02*
D03*
D21*
X6630000Y9870001D02*
D03*
Y9980001D02*
D03*
Y10200001D02*
D03*
Y10310001D02*
D03*
Y8910000D02*
D03*
X5430000Y9130001D02*
D03*
Y8910000D02*
D03*
Y10310001D02*
D03*
Y10200001D02*
D03*
Y10090001D02*
D03*
Y9980001D02*
D03*
Y9870001D02*
D03*
Y9760001D02*
D03*
Y9650001D02*
D03*
Y9350001D02*
D03*
Y9240001D02*
D03*
Y9020001D02*
D03*
X6630000Y10090001D02*
D03*
Y9760001D02*
D03*
Y9650001D02*
D03*
Y9350001D02*
D03*
Y9240001D02*
D03*
Y9130001D02*
D03*
Y9020001D02*
D03*
D22*
X7222500Y8192000D02*
D03*
Y8065000D02*
D03*
X6322500D02*
D03*
X7222500Y7811000D02*
D03*
X6322500Y8192000D02*
D03*
Y7938000D02*
D03*
Y7811000D02*
D03*
Y7684000D02*
D03*
Y7557000D02*
D03*
Y7430000D02*
D03*
Y7303000D02*
D03*
X7222500Y7938000D02*
D03*
Y7684000D02*
D03*
Y7557000D02*
D03*
Y7430000D02*
D03*
Y7303000D02*
D03*
D23*
X8851753Y7686500D02*
D03*
Y7559500D02*
D03*
Y7813500D02*
D03*
X8368247D02*
D03*
Y7686500D02*
D03*
Y7559500D02*
D03*
X8851753Y7940500D02*
D03*
D24*
X10622500Y6212699D02*
D03*
Y6047301D02*
D03*
D25*
X10587500Y9510000D02*
D03*
X11190000Y6232500D02*
D03*
X7000000Y10070000D02*
D03*
X10307500Y9510000D02*
D03*
X10910000Y6232500D02*
D03*
X7280000Y10070000D02*
D03*
D26*
X13380000Y7727561D02*
D03*
Y7432439D02*
D03*
X5070000Y10102439D02*
D03*
Y10397561D02*
D03*
D27*
X13270000Y6310000D02*
D03*
Y6430000D02*
D03*
D28*
X11085000Y5615000D02*
D03*
Y5815000D02*
D03*
D29*
X8520000Y8717500D02*
D03*
X8500000Y9872500D02*
D03*
X8520000Y9062500D02*
D03*
X8500000Y9527500D02*
D03*
D30*
X8596064Y6828004D02*
D03*
X8593564Y6238004D02*
D03*
Y5658004D02*
D03*
X8583564Y5068004D02*
D03*
X8563564Y4488004D02*
D03*
X8941064Y6828004D02*
D03*
X8938564Y5658004D02*
D03*
Y6238004D02*
D03*
X8928564Y5068004D02*
D03*
X8908564Y4488004D02*
D03*
D31*
X9940000Y8840000D02*
D03*
X6207500Y6655000D02*
D03*
Y6375000D02*
D03*
X9940000Y9120000D02*
D03*
D32*
X9900000Y8657500D02*
D03*
X10020000D02*
D03*
D33*
X8368247Y7940500D02*
D03*
D34*
X7285000Y10290000D02*
D03*
X7435000D02*
D03*
D35*
X7187500Y6710000D02*
D03*
X6567500D02*
D03*
X7187500Y6340000D02*
D03*
X6567500D02*
D03*
D36*
X9504600Y4190825D02*
D03*
D37*
Y3240825D02*
D03*
X11054600Y3240825D02*
D03*
D38*
X10964600Y4200825D02*
D03*
%TF.MD5,c2bab4a81bbeefa18220d1ab8bd31b52*%
M02*
